<svg width="232" height="31" viewBox="0 0 232 31" fill="none" xmlns="http://www.w3.org/2000/svg">
<path d="M18.706 14.082C19.182 15.65 19.42 17.358 19.42 19.206C19.42 21.194 19.154 22.944 18.622 24.456C18.006 26.304 17.012 27.746 15.64 28.782C14.268 29.818 12.588 30.336 10.6 30.336C8.64 30.336 7.03 29.594 5.77 28.11C5.714 28.026 5.658 27.998 5.602 28.026C5.546 28.054 5.518 28.11 5.518 28.194V29.496C5.518 29.636 5.462 29.762 5.35 29.874C5.266 29.958 5.154 30 5.014 30H1.15C1.01 30 0.883996 29.958 0.771996 29.874C0.687996 29.762 0.645996 29.636 0.645996 29.496V1.10401C0.645996 0.964007 0.687996 0.852007 0.771996 0.768006C0.883996 0.656006 1.01 0.600006 1.15 0.600006H5.014C5.154 0.600006 5.266 0.656006 5.35 0.768006C5.462 0.852007 5.518 0.964007 5.518 1.10401V10.218C5.518 10.302 5.546 10.358 5.602 10.386C5.658 10.414 5.714 10.4 5.77 10.344C6.974 8.91601 8.57 8.20201 10.558 8.20201C12.63 8.20201 14.338 8.72001 15.682 9.75601C17.054 10.792 18.062 12.234 18.706 14.082ZM13.414 24.12C14.086 22.944 14.422 21.334 14.422 19.29C14.422 17.106 14.002 15.398 13.162 14.166C12.406 12.99 11.286 12.402 9.802 12.402C8.43 12.402 7.38 13.018 6.652 14.25C5.952 15.398 5.602 17.064 5.602 19.248C5.602 21.404 5.924 23.028 6.568 24.12C7.296 25.464 8.388 26.136 9.844 26.136C10.628 26.136 11.328 25.968 11.944 25.632C12.56 25.268 13.05 24.764 13.414 24.12Z" fill="white"/>
<path d="M23.3089 30C23.1689 30 23.0429 29.958 22.9309 29.874C22.8469 29.762 22.8049 29.636 22.8049 29.496V1.10401C22.8049 0.964007 22.8469 0.852007 22.9309 0.768006C23.0429 0.656006 23.1689 0.600006 23.3089 0.600006H27.1729C27.3129 0.600006 27.4249 0.656006 27.5089 0.768006C27.6209 0.852007 27.6769 0.964007 27.6769 1.10401V29.496C27.6769 29.636 27.6209 29.762 27.5089 29.874C27.4249 29.958 27.3129 30 27.1729 30H23.3089Z" fill="white"/>
<path d="M44.2778 9.04201C44.2778 8.90201 44.3198 8.79001 44.4038 8.70601C44.5158 8.59401 44.6418 8.53801 44.7818 8.53801H48.6038C48.7438 8.53801 48.8558 8.59401 48.9398 8.70601C49.0518 8.79001 49.1078 8.90201 49.1078 9.04201V29.496C49.1078 29.636 49.0518 29.762 48.9398 29.874C48.8558 29.958 48.7438 30 48.6038 30H44.7818C44.6418 30 44.5158 29.958 44.4038 29.874C44.3198 29.762 44.2778 29.636 44.2778 29.496V28.152C44.2778 28.068 44.2498 28.012 44.1938 27.984C44.1378 27.956 44.0818 27.984 44.0258 28.068C42.8778 29.552 41.1558 30.294 38.8598 30.294C36.7318 30.294 34.9398 29.678 33.4838 28.446C32.0558 27.214 31.3418 25.464 31.3418 23.196V9.04201C31.3418 8.90201 31.3838 8.79001 31.4678 8.70601C31.5798 8.59401 31.7058 8.53801 31.8458 8.53801H35.7098C35.8498 8.53801 35.9618 8.59401 36.0458 8.70601C36.1578 8.79001 36.2138 8.90201 36.2138 9.04201V21.81C36.2138 23.126 36.5498 24.176 37.2218 24.96C37.9218 25.744 38.8878 26.136 40.1198 26.136C41.3798 26.136 42.3878 25.744 43.1438 24.96C43.8998 24.176 44.2778 23.126 44.2778 21.81V9.04201Z" fill="white"/>
<path d="M71.1584 16.854C71.2704 17.554 71.3264 18.338 71.3264 19.206L71.2844 20.508C71.2844 20.844 71.1164 21.012 70.7804 21.012H57.6344C57.4944 21.012 57.4244 21.082 57.4244 21.222C57.5084 22.146 57.6344 22.776 57.8024 23.112C58.4744 25.128 60.1124 26.15 62.7164 26.178C64.6204 26.178 66.1324 25.394 67.2524 23.826C67.3644 23.658 67.5044 23.574 67.6724 23.574C67.7844 23.574 67.8824 23.616 67.9664 23.7L70.5704 25.842C70.8224 26.038 70.8644 26.262 70.6964 26.514C69.8284 27.746 68.6664 28.698 67.2104 29.37C65.7824 30.042 64.1864 30.378 62.4224 30.378C60.2384 30.378 58.3764 29.888 56.8364 28.908C55.3244 27.928 54.2184 26.556 53.5184 24.792C52.8744 23.28 52.5524 21.18 52.5524 18.492C52.5524 16.868 52.7204 15.552 53.0564 14.544C53.6164 12.584 54.6664 11.044 56.2064 9.92401C57.7744 8.77601 59.6504 8.20201 61.8344 8.20201C67.3504 8.20201 70.4584 11.086 71.1584 16.854ZM61.8344 12.402C60.7984 12.402 59.9304 12.668 59.2304 13.2C58.5584 13.704 58.0824 14.418 57.8024 15.342C57.6344 15.818 57.5224 16.434 57.4664 17.19C57.4104 17.33 57.4664 17.4 57.6344 17.4H66.1604C66.3004 17.4 66.3704 17.33 66.3704 17.19C66.3144 16.49 66.2304 15.958 66.1184 15.594C65.8664 14.586 65.3624 13.802 64.6064 13.242C63.8784 12.682 62.9544 12.402 61.8344 12.402Z" fill="white"/>
<path d="M82.1709 30.252C80.4069 30.252 78.8529 30 77.5089 29.496C76.1929 28.964 75.1709 28.25 74.4429 27.354C73.7149 26.43 73.3509 25.408 73.3509 24.288V23.91C73.3509 23.77 73.3929 23.658 73.4769 23.574C73.5889 23.462 73.7149 23.406 73.8549 23.406H77.5509C77.6909 23.406 77.8029 23.462 77.8869 23.574C77.9989 23.658 78.0549 23.77 78.0549 23.91V23.994C78.0549 24.694 78.4329 25.31 79.1889 25.842C79.9729 26.346 80.9529 26.598 82.1289 26.598C83.2489 26.598 84.1589 26.374 84.8589 25.926C85.5589 25.45 85.9089 24.862 85.9089 24.162C85.9089 23.518 85.6149 23.042 85.0269 22.734C84.4669 22.398 83.5429 22.048 82.2549 21.684L80.6589 21.18C79.2309 20.76 78.0269 20.312 77.0469 19.836C76.0669 19.36 75.2409 18.716 74.5689 17.904C73.8969 17.064 73.5609 16 73.5609 14.712C73.5609 12.752 74.3309 11.198 75.8709 10.05C77.4109 8.87401 79.4409 8.28601 81.9609 8.28601C83.6689 8.28601 85.1669 8.56601 86.4549 9.12601C87.7429 9.65801 88.7369 10.414 89.4369 11.394C90.1369 12.346 90.4869 13.438 90.4869 14.67C90.4869 14.81 90.4309 14.936 90.3189 15.048C90.2349 15.132 90.1229 15.174 89.9829 15.174H86.4129C86.2729 15.174 86.1469 15.132 86.0349 15.048C85.9509 14.936 85.9089 14.81 85.9089 14.67C85.9089 13.942 85.5449 13.34 84.8169 12.864C84.1169 12.36 83.1509 12.108 81.9189 12.108C80.8269 12.108 79.9309 12.318 79.2309 12.738C78.5589 13.13 78.2229 13.69 78.2229 14.418C78.2229 15.09 78.5449 15.608 79.1889 15.972C79.8609 16.308 80.9669 16.686 82.5069 17.106L83.4309 17.358C84.9149 17.806 86.1609 18.268 87.1689 18.744C88.1769 19.192 89.0309 19.836 89.7309 20.676C90.4309 21.488 90.7809 22.552 90.7809 23.868C90.7809 25.856 89.9969 27.424 88.4289 28.572C86.8609 29.692 84.7749 30.252 82.1709 30.252Z" fill="white"/>
<path d="M102.77 30C102.546 30 102.392 29.888 102.308 29.664L96.344 9.20999L96.302 9.08399C96.302 8.85999 96.442 8.74799 96.722 8.74799H98.906C99.158 8.74799 99.312 8.87399 99.368 9.12599L103.82 25.674C103.848 25.73 103.876 25.758 103.904 25.758C103.96 25.758 104.002 25.73 104.03 25.674L108.566 9.12599C108.622 8.87399 108.776 8.74799 109.028 8.74799H111.044C111.296 8.74799 111.45 8.85999 111.506 9.08399L116.084 25.632C116.112 25.688 116.154 25.716 116.21 25.716C116.266 25.716 116.308 25.688 116.336 25.632L120.914 9.12599C120.97 8.87399 121.124 8.74799 121.376 8.74799L123.56 8.79C123.7 8.79 123.798 8.83199 123.854 8.91599C123.938 8.99999 123.966 9.11199 123.938 9.25199L117.89 29.664C117.806 29.888 117.652 30 117.428 30H115.202C114.978 30 114.824 29.888 114.74 29.664L110.162 13.956C110.134 13.9 110.092 13.872 110.036 13.872C110.008 13.872 109.98 13.9 109.952 13.956L105.5 29.664C105.416 29.888 105.262 30 105.038 30H102.77Z" fill="white"/>
<path d="M128.966 4.88399C128.294 4.88399 127.734 4.65999 127.286 4.21199C126.838 3.76399 126.614 3.20399 126.614 2.53199C126.614 1.83199 126.838 1.27199 127.286 0.851994C127.734 0.403993 128.294 0.179993 128.966 0.179993C129.638 0.179993 130.198 0.403993 130.646 0.851994C131.094 1.27199 131.318 1.83199 131.318 2.53199C131.318 3.20399 131.094 3.76399 130.646 4.21199C130.198 4.65999 129.638 4.88399 128.966 4.88399ZM127.79 29.958C127.51 29.958 127.37 29.818 127.37 29.538V9.12599C127.37 8.84599 127.51 8.70599 127.79 8.70599H129.932C130.212 8.70599 130.352 8.84599 130.352 9.12599V29.538C130.352 29.818 130.212 29.958 129.932 29.958H127.79Z" fill="white"/>
<path d="M144.543 8.53799C145.467 8.53799 146.265 8.71999 146.937 9.08399C147.161 9.19599 147.245 9.37799 147.189 9.62999L146.727 11.688C146.643 11.968 146.461 12.052 146.181 11.94C145.705 11.744 145.159 11.646 144.543 11.646L143.997 11.688C142.541 11.744 141.337 12.29 140.385 13.326C139.433 14.334 138.957 15.622 138.957 17.19V29.58C138.957 29.86 138.817 30 138.537 30H136.395C136.115 30 135.975 29.86 135.975 29.58V9.16799C135.975 8.88799 136.115 8.74799 136.395 8.74799H138.537C138.817 8.74799 138.957 8.88799 138.957 9.16799V11.73C138.957 11.814 138.971 11.87 138.999 11.898C139.055 11.898 139.097 11.87 139.125 11.814C139.713 10.778 140.455 9.97999 141.351 9.41999C142.275 8.83199 143.339 8.53799 144.543 8.53799Z" fill="white"/>
<path d="M165.684 15.804C165.796 16.588 165.852 17.568 165.852 18.744V20.088C165.852 20.368 165.712 20.508 165.432 20.508H151.866C151.754 20.508 151.698 20.564 151.698 20.676C151.754 22.216 151.838 23.21 151.95 23.658C152.258 24.918 152.916 25.912 153.924 26.64C154.932 27.368 156.22 27.732 157.788 27.732C158.964 27.732 160 27.466 160.896 26.934C161.792 26.402 162.492 25.646 162.996 24.666C163.164 24.414 163.36 24.358 163.584 24.498L165.222 25.464C165.446 25.604 165.502 25.8 165.39 26.052C164.69 27.396 163.64 28.46 162.24 29.244C160.84 30 159.23 30.378 157.41 30.378C155.422 30.35 153.756 29.874 152.412 28.95C151.068 28.026 150.102 26.738 149.514 25.086C149.01 23.742 148.758 21.81 148.758 19.29C148.758 18.114 148.772 17.162 148.8 16.434C148.856 15.678 148.968 15.006 149.136 14.418C149.612 12.598 150.564 11.142 151.992 10.05C153.448 8.95799 155.198 8.41199 157.242 8.41199C159.79 8.41199 161.75 9.05599 163.122 10.344C164.494 11.632 165.348 13.452 165.684 15.804ZM157.242 11.016C155.87 11.016 154.722 11.38 153.798 12.108C152.902 12.808 152.314 13.76 152.034 14.964C151.866 15.552 151.754 16.504 151.698 17.82C151.698 17.932 151.754 17.988 151.866 17.988H162.744C162.856 17.988 162.912 17.932 162.912 17.82C162.856 16.56 162.772 15.664 162.66 15.132C162.352 13.872 161.722 12.878 160.77 12.15C159.846 11.394 158.67 11.016 157.242 11.016Z" fill="white"/>
<path d="M170.523 30C170.243 30 170.103 29.86 170.103 29.58V1.01999C170.103 0.739992 170.243 0.599993 170.523 0.599993H172.665C172.945 0.599993 173.085 0.739992 173.085 1.01999V29.58C173.085 29.86 172.945 30 172.665 30H170.523Z" fill="white"/>
<path d="M194.399 15.804C194.511 16.588 194.567 17.568 194.567 18.744V20.088C194.567 20.368 194.427 20.508 194.147 20.508H180.581C180.469 20.508 180.413 20.564 180.413 20.676C180.469 22.216 180.553 23.21 180.665 23.658C180.973 24.918 181.631 25.912 182.639 26.64C183.647 27.368 184.935 27.732 186.503 27.732C187.679 27.732 188.715 27.466 189.611 26.934C190.507 26.402 191.207 25.646 191.711 24.666C191.879 24.414 192.075 24.358 192.299 24.498L193.937 25.464C194.161 25.604 194.217 25.8 194.105 26.052C193.405 27.396 192.355 28.46 190.955 29.244C189.555 30 187.945 30.378 186.125 30.378C184.137 30.35 182.471 29.874 181.127 28.95C179.783 28.026 178.817 26.738 178.229 25.086C177.725 23.742 177.473 21.81 177.473 19.29C177.473 18.114 177.487 17.162 177.515 16.434C177.571 15.678 177.683 15.006 177.851 14.418C178.327 12.598 179.279 11.142 180.707 10.05C182.163 8.95799 183.913 8.41199 185.957 8.41199C188.505 8.41199 190.465 9.05599 191.837 10.344C193.209 11.632 194.063 13.452 194.399 15.804ZM185.957 11.016C184.585 11.016 183.437 11.38 182.513 12.108C181.617 12.808 181.029 13.76 180.749 14.964C180.581 15.552 180.469 16.504 180.413 17.82C180.413 17.932 180.469 17.988 180.581 17.988H191.459C191.571 17.988 191.627 17.932 191.627 17.82C191.571 16.56 191.487 15.664 191.375 15.132C191.067 13.872 190.437 12.878 189.485 12.15C188.561 11.394 187.385 11.016 185.957 11.016Z" fill="white"/>
<path d="M205.42 30.21C203.852 30.21 202.452 29.958 201.22 29.454C200.016 28.95 199.078 28.278 198.406 27.438C197.762 26.598 197.44 25.66 197.44 24.624V24.12C197.44 23.84 197.58 23.7 197.86 23.7H199.876C200.156 23.7 200.296 23.84 200.296 24.12V24.456C200.296 25.38 200.772 26.192 201.724 26.892C202.704 27.564 203.922 27.9 205.378 27.9C206.834 27.9 208.01 27.578 208.906 26.934C209.802 26.262 210.25 25.422 210.25 24.414C210.25 23.714 210.012 23.14 209.536 22.692C209.088 22.244 208.542 21.894 207.898 21.642C207.282 21.39 206.316 21.068 205 20.676C203.432 20.228 202.144 19.78 201.136 19.332C200.128 18.884 199.274 18.268 198.574 17.484C197.902 16.672 197.566 15.65 197.566 14.418C197.566 12.626 198.266 11.198 199.666 10.134C201.066 9.06999 202.914 8.53799 205.21 8.53799C206.75 8.53799 208.108 8.78999 209.284 9.29399C210.488 9.79799 211.412 10.498 212.056 11.394C212.7 12.262 213.022 13.242 213.022 14.334V14.46C213.022 14.74 212.882 14.88 212.602 14.88H210.628C210.348 14.88 210.208 14.74 210.208 14.46V14.334C210.208 13.382 209.746 12.584 208.822 11.94C207.926 11.296 206.708 10.974 205.168 10.974C203.74 10.974 202.592 11.268 201.724 11.856C200.856 12.416 200.422 13.2 200.422 14.208C200.422 15.16 200.842 15.888 201.682 16.392C202.522 16.896 203.824 17.4 205.588 17.904C207.212 18.38 208.528 18.828 209.536 19.248C210.544 19.668 211.412 20.284 212.14 21.096C212.868 21.88 213.232 22.916 213.232 24.204C213.232 26.024 212.518 27.48 211.09 28.572C209.662 29.664 207.772 30.21 205.42 30.21Z" fill="white"/>
<path d="M223.345 30.21C221.777 30.21 220.377 29.958 219.145 29.454C217.941 28.95 217.003 28.278 216.331 27.438C215.687 26.598 215.365 25.66 215.365 24.624V24.12C215.365 23.84 215.505 23.7 215.785 23.7H217.801C218.081 23.7 218.221 23.84 218.221 24.12V24.456C218.221 25.38 218.697 26.192 219.649 26.892C220.629 27.564 221.847 27.9 223.303 27.9C224.759 27.9 225.935 27.578 226.831 26.934C227.727 26.262 228.175 25.422 228.175 24.414C228.175 23.714 227.937 23.14 227.461 22.692C227.013 22.244 226.467 21.894 225.823 21.642C225.207 21.39 224.241 21.068 222.925 20.676C221.357 20.228 220.069 19.78 219.061 19.332C218.053 18.884 217.199 18.268 216.499 17.484C215.827 16.672 215.491 15.65 215.491 14.418C215.491 12.626 216.191 11.198 217.591 10.134C218.991 9.06999 220.839 8.53799 223.135 8.53799C224.675 8.53799 226.033 8.78999 227.209 9.29399C228.413 9.79799 229.337 10.498 229.981 11.394C230.625 12.262 230.947 13.242 230.947 14.334V14.46C230.947 14.74 230.807 14.88 230.527 14.88H228.553C228.273 14.88 228.133 14.74 228.133 14.46V14.334C228.133 13.382 227.671 12.584 226.747 11.94C225.851 11.296 224.633 10.974 223.093 10.974C221.665 10.974 220.517 11.268 219.649 11.856C218.781 12.416 218.347 13.2 218.347 14.208C218.347 15.16 218.767 15.888 219.607 16.392C220.447 16.896 221.749 17.4 223.513 17.904C225.137 18.38 226.453 18.828 227.461 19.248C228.469 19.668 229.337 20.284 230.065 21.096C230.793 21.88 231.157 22.916 231.157 24.204C231.157 26.024 230.443 27.48 229.015 28.572C227.587 29.664 225.697 30.21 223.345 30.21Z" fill="white"/>
</svg>
